:SAMPLES-PER-SECOND 30
:FULLY-SPECIFIED
:DEGREES
963
root  -14.0724 34.1095 12.679 -73.631 -45.0967 -142.676
Spine  25.8555 24.4733 40.472
Spine1  27.2017 -44.0112 -44.6604
Neck  3.97569e-016 0 -2.38542e-015
Head  15.9064 3.98022 18.6796
R_Clavicle  -0.69863 31.1934 -0.351863
R_UpperArm  61.8696 44.5377 6.16896
R_Forearm  44.7234 -17.414 19.577
R_Hand  -7.29062 61.1274 -29.6185
L_Clavicle  -2.98048 -6.63946 16.0158
L_UpperArm  -11.0404 -59.1727 -33.668
L_Forearm  -69.5581 23.4827 25.4112
L_Hand  22.6528 -42.4372 -59.5455
L_Thigh  -30.1623 34.8838 19.264
L_Calf  -1.23411 -3.96519 29.5522
L_Foot  -1.68241 -5.14369 -2.45662
L_Toe0  0.505156 0.0100124 -6.13631
R_Thigh  -23.3488 -61.7785 55.6892
R_Calf  6.44308 -2.0987 -6.69138
R_Foot  1.67927 7.32017 9.63034
R_Toe0  -1.78853 -0.272788 -17.3235
964
root  -13.2179 34.2873 12.2975 -97.9042 -53.4053 -132.142
Spine  27.9286 23.2843 43.1662
Spine1  29.8445 -46.0393 -44.7062
Neck  3.97569e-016 0 -2.38542e-015
Head  20.1074 6.11666 20.3725
R_Clavicle  -2.23603 29.0531 -3.97548
R_UpperArm  50.6968 57.7265 0.234396
R_Forearm  22.4572 -35.0115 36.9344
R_Hand  1.74462 21.5203 -6.1549
L_Clavicle  -4.41344 -8.56946 21.6544
L_UpperArm  -7.90186 -64.136 -34.4361
L_Forearm  -69.1541 21.408 20.6484
L_Hand  29.4847 -49.2172 -64.2106
L_Thigh  -28.2159 33.9113 24.569
L_Calf  0.0375712 -4.40084 33.3071
L_Foot  -1.48005 -3.44192 -3.67053
L_Toe0  0.505156 0.0103128 -6.13631
R_Thigh  -21.2794 -61.072 49.0829
R_Calf  8.02018 -4.01969 -12.7253
R_Foot  0.865598 5.50185 11.3193
R_Toe0  -1.78853 -0.272788 -17.3235
965
root  -12.4399 34.6916 11.4951 -126.685 -56.3763 -115.131
Spine  28.1929 23.3856 40.8983
Spine1  29.4534 -45.5152 -43.7722
Neck  3.97569e-016 0 -2.38542e-015
Head  24.2753 8.95847 22.9298
R_Clavicle  -2.33666 28.7532 -4.24301
R_UpperArm  45.6356 55.7373 7.07812
R_Forearm  25.7092 -20.8161 17.9531
R_Hand  2.53187 17.0494 -2.43857
L_Clavicle  -5.26165 -9.08576 25.0808
L_UpperArm  -16.9787 -65.779 -24.183
L_Forearm  -53.792 16.8149 17.7853
L_Hand  34.8753 -47.6537 -75.5593
L_Thigh  -28.1886 34.0147 34.2428
L_Calf  -0.524456 -4.81912 37.0419
L_Foot  -1.57898 -4.32373 -3.06742
L_Toe0  0.505156 0.0106174 -6.13631
R_Thigh  -17.5671 -60.4667 41.3116
R_Calf  10.6415 -5.9581 -18.9995
R_Foot  0.42898 4.65432 12.5585
R_Toe0  -1.78853 -0.272788 -17.3235
966
root  -11.924 34.9973 10.2037 -156.804 -56.0222 -97.3394
Spine  28.134 22.0155 39.7576
Spine1  29.3254 -43.4255 -45.1261
Neck  3.97569e-016 0 -2.38542e-015
Head  24.401 11.7796 25.5411
R_Clavicle  -1.67267 27.5681 -2.81565
R_UpperArm  48.4953 53.8874 20.4159
R_Forearm  25.7244 -7.45361 6.2359
R_Hand  0.0129999 14.0386 -14.2627
L_Clavicle  -5.35639 -9.1266 25.466
L_UpperArm  -28.3166 -66.5635 -10.8317
L_Forearm  -28.2492 15.2784 19.3826
L_Hand  30.2502 -43.8434 -73.3924
L_Thigh  -31.042 33.4917 42.3674
L_Calf  0.628747 -5.01394 38.7907
L_Foot  -0.965494 -3.6944 -0.274183
L_Toe0  0.505156 0.0109262 -6.1363
R_Thigh  -16.8648 -59.5358 34.02
R_Calf  13.7715 -7.57986 -24.4795
R_Foot  -0.0552668 3.88751 14.4248
R_Toe0  -1.78853 -0.272788 -17.3235
967
root  -11.9013 34.9924 8.67034 175.456 -52.3003 -82.0163
Spine  27.5398 20.7449 39.3863
Spine1  28.5985 -41.421 -46.3955
Neck  3.97569e-016 0 -2.38542e-015
Head  20.8905 15.1453 26.3413
R_Clavicle  -1.16715 24.2945 -1.87112
R_UpperArm  58.8565 48.5743 40.2065
R_Forearm  30.5654 0.550263 -0.484073
R_Hand  -3.23267 14.7237 -31.3816
L_Clavicle  -5.44939 -9.02705 25.9659
L_UpperArm  -41.8622 -68.0147 6.69881
L_Forearm  -14.132 11.6888 15.7514
L_Hand  32.1132 -48.4981 -69.5826
L_Thigh  -30.617 31.1843 48.5605
L_Calf  1.31241 -4.75794 36.3704
L_Foot  -0.206309 -2.09498 1.73595
L_Toe0  0.505156 0.0112388 -6.1363
R_Thigh  -16.2602 -58.5075 26.91
R_Calf  18.4905 -8.779 -28.7013
R_Foot  -1.2263 1.61534 16.2202
R_Toe0  -1.78853 -0.272788 -17.3235
968
root  -12.4929 34.8092 7.24431 153.042 -45.8003 -72.0995
Spine  26.2859 21.0246 38.4583
Spine1  26.4587 -39.9698 -45.596
Neck  3.97569e-016 0 -2.38542e-015
Head  14.326 17.0239 26.5603
R_Clavicle  -0.853132 19.5697 -1.4331
R_UpperArm  68.1203 39.176 55.8778
R_Forearm  38.2816 2.98953 -2.51361
R_Hand  -5.37885 12.9904 -44.3954
L_Clavicle  -6.07326 -8.49747 29.2334
L_UpperArm  -54.436 -67.4263 24.0405
L_Forearm  -4.70228 8.092 10.4631
L_Hand  32.6845 -52.1038 -65.7012
L_Thigh  -27.8064 27.523 52.3107
L_Calf  0.589031 -4.08793 30.5545
L_Foot  -0.0823464 -1.55635 1.61668
L_Toe0  0.505156 0.0115552 -6.1363
R_Thigh  -11.3243 -56.7179 16.7474
R_Calf  20.7704 -9.14803 -30.0029
R_Foot  -1.71399 0.433697 15.892
R_Toe0  -1.78853 -0.272788 -17.3235
969
root  -13.8419 34.7088 6.19105 133.066 -38.2948 -66.3103
Spine  25.317 22.188 36.6204
Spine1  23.5848 -38.7516 -42.143
Neck  3.97569e-016 0 -2.38542e-015
Head  5.89834 14.5051 27.973
R_Clavicle  -0.175414 13.6658 0.12579
R_UpperArm  77.2852 29.9997 62.8998
R_Forearm  41.9739 3.64342 -3.0581
R_Hand  -6.36392 11.4401 -52.3567
L_Clavicle  -7.38631 -9.60828 33.7672
L_UpperArm  -58.9054 -66.2177 33.0339
L_Forearm  12.3282 11.8782 13.4744
L_Hand  19.4222 -40.5725 -54.8882
L_Thigh  -26.7221 24.5272 50.2627
L_Calf  -0.24736 -3.64489 26.9368
L_Foot  -0.267778 -1.58752 0.668519
L_Toe0  0.505156 0.0118752 -6.1363
R_Thigh  -4.07873 -53.6972 3.00254
R_Calf  12.1507 -7.11336 -22.8805
R_Foot  -0.219311 3.1424 12.7748
R_Toe0  -1.78853 -0.272788 -17.3235
970
root  -15.753 34.8159 5.93095 114.042 -31.196 -63.6452
Spine  24.0755 22.6901 33.1713
Spine1  20.4264 -34.5669 -38.6367
Neck  3.97569e-016 0 -2.38542e-015
Head  -1.08704 8.14361 30.5048
R_Clavicle  0.597961 9.59128 2.84075
R_UpperArm  89.3085 21.6173 64.3257
R_Forearm  41.3231 5.51844 -4.62884
R_Hand  -7.44529 12.3578 -56.7459
L_Clavicle  -8.97328 -10.6204 39.0537
L_UpperArm  -56.2785 -62.6873 35.2053
L_Forearm  29.3428 17.1148 17.3955
L_Hand  16.1149 -36.1789 -52.8836
L_Thigh  -23.8083 23.0296 42.28
L_Calf  -1.73093 -3.97177 29.8381
L_Foot  0.0934062 0.115987 0.327534
L_Toe0  0.505156 0.0121986 -6.13629
R_Thigh  3.52903 -49.5228 -12.1357
R_Calf  -3.27979 -1.18653 -3.89805
R_Foot  2.97417 10.6688 4.94601
R_Toe0  -1.78853 -0.272788 -17.3235
971
root  -17.1706 35.2576 6.57862 95.7538 -26.6331 -64.9833
Spine  20.8727 21.2573 26.7771
Spine1  16.7463 -25.5731 -36.5574
Neck  3.97569e-016 0 -2.38542e-015
Head  -5.47357 1.30106 31.6421
R_Clavicle  1.02844 9.08464 4.40621
R_UpperArm  100.351 14.8428 62.9283
R_Forearm  39.8969 8.69186 -7.32182
R_Hand  -7.46694 11.7406 -58.0023
L_Clavicle  -11.0713 -13.2846 43.6033
L_UpperArm  -55.7978 -45.2857 43.9208
L_Forearm  30.6854 11.6998 9.10003
L_Hand  28.8929 -49.0533 -62.1118
L_Thigh  -12.8785 24.1871 32.9977
L_Calf  -7.52172 -4.8967 36.3208
L_Foot  0.828143 5.18104 -1.71419
L_Toe0  0.505156 0.0125252 -6.13629
R_Thigh  13.5694 -43.2961 -25.0308
R_Calf  -11.1795 6.46164 20.4662
R_Foot  6.05882 22.8001 -7.03125
R_Toe0  -1.78853 -0.272788 -17.3235
972
root  -17.3125 35.9856 7.71965 70.7295 -24.3981 -66.5539
Spine  16.562 14.7623 20.923
Spine1  14.1699 -15.1063 -35.2992
Neck  3.97569e-016 0 -2.38542e-015
Head  -7.68323 -4.33007 31.0648
R_Clavicle  1.28289 9.93557 5.24012
R_UpperArm  104.981 16.8292 60.8992
R_Forearm  37.0544 9.2325 -7.78557
R_Hand  -7.26183 11.0323 -58.1706
L_Clavicle  -15.407 -21.6665 47.4892
L_UpperArm  -50.9691 -13.2492 49.9735
L_Forearm  41.1228 1.00177 1.28223
L_Hand  30.278 -61.0402 -57.2522
L_Thigh  -4.86208 31.7391 20.2698
L_Calf  -15.9241 -5.55718 39.6806
L_Foot  1.48928 11.5389 -4.48682
L_Toe0  0.505156 0.0128549 -6.13629
R_Thigh  21.0208 -37.0715 -29.4059
R_Calf  -12.9315 11.0038 37.0237
R_Foot  6.52454 31.63 -16.9361
R_Toe0  -1.78853 -0.272788 -17.3235
973
root  -16.9326 36.9036 8.46036 43.486 -25.2939 -65.3761
Spine  12.8718 9.21415 14.2239
Spine1  11.8688 -10.0827 -35.6844
Neck  3.97569e-016 0 -2.38542e-015
Head  -9.19583 -8.30426 31.8615
R_Clavicle  0.948496 8.59358 3.92407
R_UpperArm  104.731 24.4128 64.1349
R_Forearm  31.7204 7.18197 -6.03297
R_Hand  -7.24391 14.4906 -52.3123
L_Clavicle  -25.4394 -32.339 59.8136
L_UpperArm  -51.8711 9.19517 37.9405
L_Forearm  62.2567 1.95418 15.6249
L_Hand  2.53481 -13.7743 -4.51687
L_Thigh  -8.67292 36.6981 8.42578
L_Calf  -19.6043 -4.71814 40.4383
L_Foot  2.41624 14.7599 -3.58546
L_Toe0  0.505156 0.0131876 -6.13628
R_Thigh  27.4169 -34.2391 -29.531
R_Calf  -16.4627 11.8438 40.4638
R_Foot  6.2227 33.1176 -19.2412
R_Toe0  -1.78853 -0.272788 -17.3235
974
root  -16.5323 37.4562 8.67643 17.0277 -25.5175 -58.4759
Spine  10.1513 8.30355 7.80051
Spine1  10.8415 -12.7433 -38.7046
Neck  3.97569e-016 0 -2.38542e-015
Head  -9.82049 -10.6411 34.2265
R_Clavicle  1.25994 12.4894 5.6098
R_UpperArm  101.163 22.7073 68.9951
R_Forearm  24.5638 6.30959 -5.29581
R_Hand  -5.18725 18.2938 -38.8363
L_Clavicle  -13.35 -27.8146 34.5826
L_UpperArm  -81.1851 -33.4286 54.8969
L_Forearm  16.4503 31.9152 74.2467
L_Hand  -4.99463 -13.7171 -19.6086
L_Thigh  -12.3249 36.6652 0.888754
L_Calf  -22.0993 -6.7123 43.4916
L_Foot  3.31006 15.3033 -1.22319
L_Toe0  0.505156 0.0135229 -6.13628
R_Thigh  25.3528 -34.2365 -27.8933
R_Calf  -15.7026 11.8177 40.3518
R_Foot  6.36846 32.9966 -18.389
R_Toe0  -1.78853 -0.272788 -17.3235
975
root  -16.2838 37.5014 8.73027 -7.06763 -22.1335 -49.0238
Spine  8.26449 10.3535 2.76062
Spine1  11.137 -17.3553 -43.7117
Neck  3.97569e-016 0 -2.38542e-015
Head  -9.19845 -11.746 34.3244
R_Clavicle  0.865713 28.143 2.73247
R_UpperArm  97.108 15.9499 66.4767
R_Forearm  14.4777 2.11782 -1.84538
R_Hand  -2.87053 20.4551 -27.6971
L_Clavicle  1.47408 43.3326 8.33034
L_UpperArm  -97.1727 -40.6418 154.802
L_Forearm  -48.1027 46.4752 62.8594
L_Hand  18.7051 -11.4788 -80.3541
L_Thigh  -13.2074 35.8433 -1.10284
L_Calf  -23.0964 -8.29232 48.8237
L_Foot  4.71913 16.74 1.83509
L_Toe0  0.505156 0.0138609 -6.13628
R_Thigh  24.6888 -35.3914 -24.7202
R_Calf  -16.4013 11.906 40.8707
R_Foot  6.25644 33.2187 -19.1178
R_Toe0  -1.78853 -0.272788 -17.3235
976
root  -16.3178 37.1424 8.60067 -27.7512 -15.4921 -41.746
Spine  5.80881 11.2106 -0.795624
Spine1  10.6366 -19.9266 -48.2457
Neck  3.97569e-016 0 -2.38542e-015
Head  -8.34377 -10.7502 31.9689
R_Clavicle  6.2833 33.8638 14.5917
R_UpperArm  90.8023 14.8265 62.0165
R_Forearm  -9.87593 -4.4605 4.38722
R_Hand  -2.05835 21.533 -23.0971
L_Clavicle  -0.521818 21.6937 4.59784
L_UpperArm  -82.8232 -49.2591 116.457
L_Forearm  -28.9208 44.4724 63.7421
L_Hand  -5.38209 -6.65326 -139.499
L_Thigh  -12.8714 38.3497 1.05838
L_Calf  -22.6666 -7.432 50.2229
L_Foot  7.03443 18.7637 6.75618
L_Toe0  0.505156 0.0142012 -6.13628
R_Thigh  25.1654 -37.1352 -20.0673
R_Calf  -20.2242 11.4524 38.8407
R_Foot  6.33219 32.3466 -18.0505
R_Toe0  -1.78853 -0.272788 -17.3235
977
root  -16.6569 35.9261 8.29112 -44.2666 -7.68979 -39.7086
Spine  0.509864 6.7015 -2.54349
Spine1  6.26537 -19.5661 -49.8775
Neck  3.97569e-016 0 -2.38542e-015
Head  -7.15759 -8.02627 29.747
R_Clavicle  5.2551 25.9227 13.943
R_UpperArm  70.0176 5.29542 66.2761
R_Forearm  -51.3666 7.41021 -5.28216
R_Hand  -3.2976 30.1193 -32.5904
L_Clavicle  -0.598019 0.515825 5.68307
L_UpperArm  -58.6316 -41.9841 80.1807
L_Forearm  18.63 40.6286 65.2756
L_Hand  -37.1959 -1.77769 -118.622
L_Thigh  -13.5059 43.3853 3.20505
L_Calf  -23.7599 -6.02717 49.7313
L_Foot  7.341 19.4301 7.01752
L_Toe0  0.505156 0.0145438 -6.13627
R_Thigh  20.6815 -39.129 -15.733
R_Calf  -21.4248 10.4093 34.5988
R_Foot  6.43343 29.2465 -14.706
R_Toe0  -1.78853 -0.272788 -17.3235
